<svg xmlns="http://www.w3.org/2000/svg" viewBox="0 0 898.53 894.24"><defs><style>.cls-1{fill:none;stroke:#000;stroke-miterlimit:10;stroke-width:2px;}</style></defs><g id="Layer_2" data-name="Layer 2"><g id="Layer_1-2" data-name="Layer 1"><path class="cls-1" d="M84.19,576.93v12q0,114.14,0,228.26c0,38.93,18.35,59.65,57.14,64.81,4,.53,9.61-.29,8.06,6.07-.51,2.09-5.38,4.41-8.27,4.43q-65.79.42-131.58,0c-2.91,0-7.84-2.38-8.33-4.47-1.47-6.3,4.1-5.54,8.12-6,38.83-4.79,57.78-26.25,57.78-65.39q0-129.94,0-259.91c0-36.23-21-59.39-57.22-63.18-2.46-.26-5.19-.5-7.17-1.74-1.06-.66-1.56-3.85-.89-5.17.79-1.57,3.14-3.35,4.79-3.32,28.45.37,57.09-.83,85.28,2.13C116.6,488,134,503,144.49,526.47c32.16,72.06,65,143.81,97.64,215.67,1,2.22,2.31,4.31,4.24,7.87,9-21,17.39-40.55,25.73-60.14q34.56-81.12,69.1-162.27c12.47-29.16,34.65-44.48,66.49-44.51q232.91-.19,465.82,0c3.14,0,6.28.29,10.36.48,3.19,28,6.35,55.53,9.47,83.07,1.48,13,3.09,26,4.18,39.08.21,2.57-1.69,5.31-2.62,8-2-2-4.95-3.63-6-6.06-15-35.24-35.72-66.37-66-90.44-17.6-14-37.13-23.54-61.8-23.83V505q0,157.29,0,314.59c0,36.26,20.35,58.71,56.43,62.73,2.23.25,4.78-.1,6.58.9a6.76,6.76,0,0,1,3.09,5c0,1.59-1.91,3.8-3.51,4.49-1.91.82-4.4.39-6.63.39q-57.63,0-115.26,0c-12.61,0-12.67-.1-12.67-12.45q0-185.6,0-371.17c0-15.91,0-15.89-16.13-13.6-48,6.81-72.3,38.23-84.72,81.73-2.27,8-3.15,16.3-5.28,24.3-1.09,4.13-3.52,7.92-5.34,11.86-1.89-3.88-4.23-7.61-5.59-11.67C566.38,585,562.9,566.71,555,550.62c-16.46-33.49-45.68-49.94-82.27-53.12-14.94-1.3-30.07-.37-45.12-.59-4.42-.06-7.34.79-7.33,6.18q.14,86.3.05,172.4c27.58,8.21,65.79-10.72,74.78-38.12,4.41-13.47,5.19-28.11,8-42.16.64-3.25,2.74-6.21,4.17-9.31,1.78,2.86,4.76,5.56,5.15,8.6,6.79,53.24,13.26,106.53,19.8,159.81.94,7.62,2.2,15.2,2.67,22.84.12,2-2.15,4.23-3.32,6.34-1.95-1.56-4.86-2.74-5.69-4.76-5-12.4-8.49-25.55-14.52-37.41-17.59-34.59-48.4-47.21-85.28-48.89-8-.37-6.57,5.2-6.57,9.72q-.11,69.54-.05,139.07V878.9c41.64-2.28,83.18,7.1,121.39-14.21,38-21.18,62.71-53.71,79.63-92.9.63-1.47.8-3.29,1.8-4.41a54.06,54.06,0,0,1,5.88-5.07c.86,2.3,2.7,4.74,2.42,6.9q-7.63,58.93-16,117.79c-.3,2.11-3.72,3.87-5.87,5.56-.61.47-1.87.11-2.83.11q-158.47,0-316.95-.07c-3.84,0-8.84,1.46-8.86-5.41,0-6.67,5.06-5.44,8.84-5.89,38.63-4.58,56.69-24.71,56.73-63.72q.11-123.24,0-246.49v-9.31l-1.85-.48C338,574.89,332,588.45,326.19,602.06Q274.79,721.85,223.3,841.61c-1.61,3.73-4.93,6.72-7.46,10-2.64-3.27-6.1-6.16-7.81-9.86Q148,711.65,88.38,581.33c-.74-1.6-1.62-3.14-2.42-4.71Z"/><path class="cls-1" d="M875.33,283.16c-5.54,40.5-11.23,81-16.5,121.51-1,7.92-6.25,6.63-11.19,6.63q-89.8,0-179.61,0H547c-2.56,0-5.38.57-7.6-.33-1.8-.72-4-3.24-4-5s2.37-3.55,3.85-5.21c.31-.35,1.23-.16,1.87-.19,35-1.6,48.41-20.9,49.05-50.67,1-45.63.25-91.29.25-137.81-3.46-.24-6.53-.64-9.59-.64q-67.23-.08-134.47,0c-4.75,0-9.76-1.06-9.69,6.68.45,45.06-.36,90.16,1.29,135.18,1.1,30.23,17.08,44.58,47.13,47.89,2.54.28,4.77,3.29,7.15,5-2.24,1.53-4.48,4.38-6.72,4.39q-91.23.31-182.48.06a15,15,0,0,1-3.27-.91v-8c7.48-1.47,14.74-2.46,21.77-4.34,27.26-7.3,42.55-26.6,43.53-54.87.37-10.54.16-21.1.16-31.65q0-93.51,0-187c0-23.37-3.51-46-16.2-66.15-17-27-43.47-38.54-73.54-43.55-9.12-1.52-18.48-1.55-27.7-2.55-6.87-.74-9.17,2.25-8.7,8.79.39,5.41.11,10.86.11,16.3q0,179.34,0,358.69V410c-3.73.36-6.2.8-8.66.8q-60,.07-120,.06c-.64,0-1.47.28-1.89,0-2.4-1.72-4.71-3.57-7-5.38,2.15-1.65,4-4,6.48-4.83,12.2-4.42,25.74-6.48,36.55-13.08,18.64-11.37,23.41-30.77,23.38-51.66q-.17-105-.05-210,0-51.3,0-102.62V10.49c-10,2.22-18.88,3.15-27,6.17C104,30.53,77.14,57.26,54.6,88.56,46.45,99.87,40.81,113,33.59,125c-1.77,2.94-5.24,4.85-7.93,7.23L22.86,130q1.8-13.14,3.6-26.28c4.08-30.07,8.49-60.11,12-90.25C39.6,4,42.89,1,52.69,1c120.37.35,240.75.22,361.12.22,23.37,0,46.74-.05,70.11.1,3.75,0,9.68-1.59,8.78,5.08-.29,2.1-5.1,4.82-8.07,5.15-28.09,3.07-44.86,17.28-45.85,45-1.66,46-.66,92-.74,138,0,.56.51,1.12,1.11,2.31H590.62c.23-3.19.6-6,.6-8.75,0-39.32.16-78.64-.13-118a102,102,0,0,0-2.87-23.68c-5-20.1-17.83-30.68-38.59-33-3.19-.36-6.66,0-9.45-1.24a8.43,8.43,0,0,1-4.12-5.91C535.9,5,538.65,2.73,540.55,2s4.41-.25,6.65-.25l284.29,0h10.23c6,43.59,11.81,86.19,17.68,129-7.83,3.11-8.87-2.22-10.63-6.45-12.83-30.91-31.1-57.9-57.26-79.18-24.21-19.69-51.65-30.18-83.16-29.49-14.67.32-29.34.06-44.87.06-.28,3.92-.68,7-.69,10.07,0,53.06.18,106.14-.25,159.2-.08,9.58,2.91,12,12.1,11.19,28.84-2.54,53.62-11.23,64.37-41.2,3.2-8.91,4.3-18.61,6-28,.88-5,.43-10.28,1.48-15.24.51-2.45,3.06-4.49,4.68-6.71,1.4,2.13,3.75,4.13,4,6.4,4.6,34.2,9,68.43,13.32,102.66,3.19,25,6.48,50.07,9.26,75.15.48,4.32-.6,12.41-2.23,12.76-7.64,1.62-6.21-6-7.89-10.27-2.92-7.42-5.11-15.14-8.21-22.48-16.28-38.6-53.74-61.1-96.1-57.22-.18,3.23-.53,6.62-.53,10-.06,55,.09,110-.28,165-.06,8.4,2.22,11,10.77,10.72,23.66-.82,47.57,1.21,71-1.44C784.2,391.65,814.07,368.6,837,337c11-15.1,18.63-32.58,28.07-48.82,1.74-3,4.8-5.19,7.25-7.76Z"/></g></g></svg>