<?xml version="1.0" encoding="utf-8"?>
<!-- Generator: Adobe Illustrator 25.2.1, SVG Export Plug-In . SVG Version: 6.00 Build 0)  -->
<svg version="1.1" id="Layer_1" xmlns="http://www.w3.org/2000/svg" xmlns:xlink="http://www.w3.org/1999/xlink" x="0px" y="0px"
	 viewBox="0 0 1080 1080" style="enable-background:new 0 0 1080 1080;" xml:space="preserve">
<style type="text/css">
	.st0{fill:#EB0029;}
</style>
<circle cx="540" cy="544.9" r="475"/>
<g>
	<path class="st0" d="M334.2,618c0,2.2,0,4.5,0,6.7c0,42.9,0,85.8,0,128.7c0,21.9,10.3,33.6,32.2,36.5c2.2,0.3,5.4-0.2,4.5,3.4
		c-0.3,1.2-3,2.5-4.7,2.5c-24.7,0.2-49.4,0.2-74.2,0c-1.6,0-4.4-1.3-4.7-2.5c-0.8-3.6,2.3-3.1,4.6-3.4c21.9-2.7,32.6-14.8,32.6-36.9
		c0-48.8,0-97.7,0-146.5c0-20.4-11.8-33.5-32.2-35.6c-1.4-0.1-2.9-0.3-4-1c-0.6-0.4-0.9-2.2-0.5-2.9c0.4-0.9,1.8-1.9,2.7-1.9
		c16,0.2,32.2-0.5,48.1,1.2c13.9,1.5,23.7,10,29.6,23.2c18.1,40.6,36.6,81.1,55,121.6c0.6,1.3,1.3,2.4,2.4,4.4
		c5.1-11.8,9.8-22.9,14.5-33.9c13-30.5,25.9-61,38.9-91.5c7-16.4,19.5-25.1,37.5-25.1c87.5-0.1,175,0,262.5,0c1.8,0,3.5,0.2,5.8,0.3
		c1.8,15.8,3.6,31.3,5.3,46.8c0.8,7.3,1.7,14.7,2.4,22c0.1,1.4-1,3-1.5,4.5c-1.2-1.1-2.8-2-3.4-3.4c-8.5-19.9-20.1-37.4-37.2-51
		c-9.9-7.9-20.9-13.3-34.8-13.4c0,2.4,0,4.5,0,6.6c0,59.1,0,118.2,0,177.3c0,20.4,11.5,33.1,31.8,35.4c1.3,0.1,2.7-0.1,3.7,0.5
		c0.9,0.5,1.8,1.9,1.7,2.8c0,0.9-1.1,2.1-2,2.5c-1.1,0.5-2.5,0.2-3.7,0.2c-21.7,0-43.3,0-65,0c-7.1,0-7.1-0.1-7.1-7
		c0-69.7,0-139.5,0-209.2c0-9,0-9-9.1-7.7c-27.1,3.8-40.7,21.5-47.7,46.1c-1.3,4.5-1.8,9.2-3,13.7c-0.6,2.3-2,4.5-3,6.7
		c-1.1-2.2-2.4-4.3-3.1-6.6c-3.2-9.7-5.2-20-9.7-29c-9.3-18.9-25.7-28.2-46.4-29.9c-8.4-0.7-17-0.2-25.4-0.3c-2.5,0-4.1,0.4-4.1,3.5
		c0,32.4,0,64.8,0,97.2c15.5,4.6,37.1-6,42.1-21.5c2.5-7.6,2.9-15.8,4.5-23.8c0.4-1.8,1.5-3.5,2.4-5.2c1,1.6,2.7,3.1,2.9,4.8
		c3.8,30,7.5,60,11.2,90.1c0.5,4.3,1.2,8.6,1.5,12.9c0.1,1.1-1.2,2.4-1.9,3.6c-1.1-0.9-2.7-1.5-3.2-2.7c-2.8-7-4.8-14.4-8.2-21.1
		c-9.9-19.5-27.3-26.6-48.1-27.6c-4.5-0.2-3.7,2.9-3.7,5.5c0,26.1,0,52.3,0,78.4c0,6.8,0,13.6,0,21.2c23.5-1.3,46.9,4,68.4-8
		c21.4-11.9,35.3-30.3,44.9-52.4c0.4-0.8,0.5-1.9,1-2.5c1-1.1,2.2-1.9,3.3-2.9c0.5,1.3,1.5,2.7,1.4,3.9c-2.9,22.1-5.8,44.3-9,66.4
		c-0.2,1.2-2.1,2.2-3.3,3.1c-0.3,0.3-1.1,0.1-1.6,0.1c-59.5,0-119.1,0-178.6,0c-2.2,0-5,0.8-5-3c0-3.8,2.9-3.1,5-3.3
		c21.8-2.6,32-13.9,32-35.9c0-46.3,0-92.6,0-138.9c0-1.8,0-3.5,0-5.2c-0.3-0.1-0.7-0.2-1-0.3c-3.3,7.7-6.7,15.3-9.9,23
		c-19.3,45-38.6,90-58,135c-0.9,2.1-2.8,3.8-4.2,5.7c-1.5-1.8-3.4-3.5-4.4-5.6c-22.5-48.9-45-97.9-67.4-146.8
		c-0.4-0.9-0.9-1.8-1.4-2.7C334.8,617.9,334.5,618,334.2,618z"/>
	<path class="st0" d="M780.1,452.5c-3.1,22.8-6.3,45.6-9.3,68.5c-0.6,4.5-3.5,3.7-6.3,3.7c-33.7,0-67.5,0-101.2,0
		c-22.7,0-45.5,0-68.2,0c-1.4,0-3,0.3-4.3-0.2c-1-0.4-2.2-1.8-2.2-2.8c0-1,1.3-2,2.2-2.9c0.2-0.2,0.7-0.1,1.1-0.1
		c19.7-0.9,27.3-11.8,27.6-28.6c0.6-25.7,0.1-51.5,0.1-77.7c-2-0.1-3.7-0.4-5.4-0.4c-25.3,0-50.5,0-75.8,0c-2.7,0-5.5-0.6-5.5,3.8
		c0.3,25.4-0.2,50.8,0.7,76.2c0.6,17,9.6,25.1,26.6,27c1.4,0.2,2.7,1.9,4,2.8c-1.3,0.9-2.5,2.5-3.8,2.5c-34.3,0.1-68.6,0.1-102.9,0
		c-0.5,0-1-0.3-1.8-0.5c0-1.5,0-3,0-4.5c4.2-0.8,8.3-1.4,12.3-2.4c15.4-4.1,24-15,24.5-30.9c0.2-5.9,0.1-11.9,0.1-17.8
		c0-35.1,0-70.3,0-105.4c0-13.2-2-25.9-9.1-37.3c-9.6-15.2-24.5-21.7-41.4-24.5c-5.1-0.9-10.4-0.9-15.6-1.4c-3.9-0.4-5.2,1.3-4.9,5
		c0.2,3,0.1,6.1,0.1,9.2c0,67.4,0,134.8,0,202.2c0,2.7,0,5.3,0,8.2c-2.1,0.2-3.5,0.4-4.9,0.5c-22.6,0-45.1,0-67.7,0
		c-0.4,0-0.8,0.2-1.1,0c-1.4-1-2.7-2-4-3c1.2-0.9,2.3-2.2,3.7-2.7c6.9-2.5,14.5-3.7,20.6-7.4c10.5-6.4,13.2-17.3,13.2-29.1
		c-0.1-39.5,0-78.9,0-118.4c0-19.3,0-38.6,0-57.8c0-2,0-3.9,0-7.2c-5.6,1.3-10.6,1.8-15.2,3.5c-20.9,7.8-36,22.9-48.7,40.5
		c-4.6,6.4-7.8,13.8-11.8,20.5c-1,1.7-3,2.7-4.5,4.1c-0.5-0.4-1.1-0.8-1.6-1.3c0.7-4.9,1.4-9.9,2-14.8c2.3-17,4.8-33.9,6.8-50.9
		c0.6-5.3,2.5-7,8-7c67.8,0.2,135.7,0.1,203.5,0.1c13.2,0,26.3,0,39.5,0.1c2.1,0,5.5-0.9,4.9,2.9c-0.2,1.2-2.9,2.7-4.5,2.9
		c-15.8,1.7-25.3,9.7-25.8,25.4c-0.9,25.9-0.4,51.9-0.4,77.8c0,0.3,0.3,0.6,0.6,1.3c28.2,0,56.6,0,85.4,0c0.1-1.8,0.3-3.4,0.3-4.9
		c0-22.2,0.1-44.3-0.1-66.5c0-4.5-0.5-9-1.6-13.3c-2.8-11.3-10-17.3-21.8-18.6c-1.8-0.2-3.8,0-5.3-0.7c-1.1-0.5-2.2-2.1-2.3-3.3
		c-0.1-0.8,1.5-2.1,2.5-2.5c1.1-0.4,2.5-0.1,3.8-0.1c53.4,0,106.8,0,160.2,0c1.8,0,3.5,0,5.8,0c3.4,24.6,6.7,48.6,10,72.7
		c-4.4,1.8-5-1.3-6-3.6c-7.2-17.4-17.5-32.6-32.3-44.6c-13.6-11.1-29.1-17-46.9-16.6c-8.3,0.2-16.5,0-25.3,0
		c-0.2,2.2-0.4,3.9-0.4,5.7c0,29.9,0.1,59.8-0.1,89.7c0,5.4,1.6,6.8,6.8,6.3c16.3-1.4,30.2-6.3,36.3-23.2c1.8-5,2.4-10.5,3.4-15.8
		c0.5-2.8,0.2-5.8,0.8-8.6c0.3-1.4,1.7-2.5,2.6-3.8c0.8,1.2,2.1,2.3,2.3,3.6c2.6,19.3,5,38.6,7.5,57.9c1.8,14.1,3.7,28.2,5.2,42.4
		c0.3,2.4-0.3,7-1.3,7.2c-4.3,0.9-3.5-3.4-4.4-5.8c-1.6-4.2-2.9-8.5-4.6-12.7c-9.2-21.8-30.3-34.4-54.2-32.2
		c-0.1,1.8-0.3,3.7-0.3,5.6c0,31,0.1,62-0.2,93c0,4.7,1.3,6.2,6.1,6c13.3-0.5,26.8,0.7,40-0.8c22.5-2.5,39.3-15.5,52.3-33.3
		c6.2-8.5,10.5-18.4,15.8-27.5c1-1.7,2.7-2.9,4.1-4.4C779,451.5,779.5,452,780.1,452.5z"/>
</g>
</svg>
